HIERARCHY
ROOT Hips
{
	OFFSET 0.00000 0.00000 0.00000
	CHANNELS 6 Xposition Yposition Zposition Zrotation Yrotation Xrotation 
	JOINT LHipJoint
	{
		OFFSET 0 0 0
		CHANNELS 3 Zrotation Yrotation Xrotation
		JOINT LeftUpLeg
		{
			OFFSET 1.64577 -1.42384 0.94276
			CHANNELS 3 Zrotation Yrotation Xrotation
			JOINT LeftLeg
			{
				OFFSET 2.11538 -5.81197 0.00000
				CHANNELS 3 Zrotation Yrotation Xrotation
				JOINT LeftFoot
				{
					OFFSET 2.36541 -6.49893 0.00000
					CHANNELS 3 Zrotation Yrotation Xrotation
					JOINT LeftToeBase
					{
						OFFSET 0.17759 -0.48793 1.73865
						CHANNELS 3 Zrotation Yrotation Xrotation
						End Site
						{
							OFFSET 0.00000 -0.00000 0.91205
						}
					}
				}
			}
		}
	}
	JOINT RHipJoint
	{
		OFFSET 0 0 0
		CHANNELS 3 Zrotation Yrotation Xrotation
		JOINT RightUpLeg
		{
			OFFSET -1.43750 -1.42384 0.94276
			CHANNELS 3 Zrotation Yrotation Xrotation
			JOINT RightLeg
			{
				OFFSET -2.10480 -5.78291 0.00000
				CHANNELS 3 Zrotation Yrotation Xrotation
				JOINT RightFoot
				{
					OFFSET -2.34880 -6.45329 0.00000
					CHANNELS 3 Zrotation Yrotation Xrotation
					JOINT RightToeBase
					{
						OFFSET -0.22842 -0.62757 1.80469
						CHANNELS 3 Zrotation Yrotation Xrotation
						End Site
						{
							OFFSET -0.00000 -0.00000 0.95886
						}
					}
				}
			}
		}
	}
	JOINT LowerBack
	{
		OFFSET 0 0 0
		CHANNELS 3 Zrotation Yrotation Xrotation
		JOINT Spine
		{
			OFFSET 0.06217 1.93758 -0.49272
			CHANNELS 3 Zrotation Yrotation Xrotation
			JOINT Spine1
			{
				OFFSET -0.03114 2.03621 -0.05830
				CHANNELS 3 Zrotation Yrotation Xrotation
				JOINT Neck
				{
					OFFSET 0 0 0
					CHANNELS 3 Zrotation Yrotation Xrotation
					JOINT Neck1
					{
						OFFSET 0.04421 1.41010 0.26562
						CHANNELS 3 Zrotation Yrotation Xrotation
						JOINT Head
						{
							OFFSET -0.13407 1.43847 0.06181
							CHANNELS 3 Zrotation Yrotation Xrotation
							End Site
							{
								OFFSET -0.04980 1.45844 -0.00689
							}
						}
					}
				}
				JOINT LeftShoulder
				{
					OFFSET 0 0 0
					CHANNELS 3 Zrotation Yrotation Xrotation
					JOINT LeftArm
					{
						OFFSET 2.18382 1.47753 -0.35694
						CHANNELS 3 Zrotation Yrotation Xrotation
						JOINT LeftForeArm
						{
							OFFSET 5.05460 -0.00000 0.00000
							CHANNELS 3 Zrotation Yrotation Xrotation
							JOINT LeftHand
							{
								OFFSET 3.39013 -0.00000 0.00000
								CHANNELS 3 Zrotation Yrotation Xrotation
								JOINT LeftFingerBase
								{
									OFFSET 0 0 0
									CHANNELS 3 Zrotation Yrotation Xrotation
									JOINT LeftHandIndex1
									{
										OFFSET 0.57242 -0.00000 -0.00000
										CHANNELS 3 Zrotation Yrotation Xrotation
										End Site
										{
											OFFSET 0.46150 -0.00000 -0.00000
										}
									}
								}
								JOINT LThumb
								{
									OFFSET 0 0 0
									CHANNELS 3 Zrotation Yrotation Xrotation
									End Site
									{
										OFFSET 0.46855 -0.00000 0.46855
									}
								}
							}
						}
					}
				}
				JOINT RightShoulder
				{
					OFFSET 0 0 0
					CHANNELS 3 Zrotation Yrotation Xrotation
					JOINT RightArm
					{
						OFFSET -2.06033 1.72839 -0.47437
						CHANNELS 3 Zrotation Yrotation Xrotation
						JOINT RightForeArm
						{
							OFFSET -5.07010 -0.00000 0.00000
							CHANNELS 3 Zrotation Yrotation Xrotation
							JOINT RightHand
							{
								OFFSET -3.14957 -0.00000 -0.00000
								CHANNELS 3 Zrotation Yrotation Xrotation
								JOINT RightFingerBase
								{
									OFFSET 0 0 0
									CHANNELS 3 Zrotation Yrotation Xrotation
									JOINT RightHandIndex1
									{
										OFFSET -0.71819 -0.00000 -0.00000
										CHANNELS 3 Zrotation Yrotation Xrotation
										End Site
										{
											OFFSET -0.57902 -0.00000 -0.00000
										}
									}
								}
								JOINT RThumb
								{
									OFFSET 0 0 0
									CHANNELS 3 Zrotation Yrotation Xrotation
									End Site
									{
										OFFSET -0.58786 -0.00000 0.58786
									}
								}
							}
						}
					}
				}
			}
		}
	}
}
MOTION
Frames: 10
Frame Time: 0.0166666
19.1903 14.8721 0.9828 -168.0390 -80.7450 165.4770 0.0000 0.0000 0.0000 -22.5762 -20.0291 -3.4209 4.8949 13.2644 40.3666 4.3126 11.8453 -44.3662 0.2690 3.3364 9.2167 0.0000 0.0000 0.0000 25.6975 22.3425 -3.7722 -4.4064 -12.6824 38.1909 -3.4817 -15.2380 -42.8497 -1.5231 7.7928 -22.0864 -0.4223 1.6843 2.2630 -1.6954 2.2018 3.0756 -1.5143 1.0851 1.9375 7.0438 0.2809 -5.0433 -1.6871 -0.1886 10.3019 -1.8491 0.0634 4.3283 -0.0000 0.0000 0.0000 -84.8842 -0.2059 17.0847 14.6129 -23.6041 -3.0693 -0.0000 -0.0000 3.6916 17.8520 10.8975 3.4843 -7.1250 0.0000 -0.0000 -8.2138 41.2748 0.7604 -0.0000 0.0000 0.0000 87.0824 -4.7525 36.2406 -17.2882 27.2361 -4.2184 0.0000 -0.0000 -15.1606 -14.4377 2.9180 -0.7509 7.1250 -0.0000 -0.0000 9.2759 -26.9372 4.1178
19.1996 14.8670 0.9981 -167.0150 -81.0496 164.4600 0.0000 0.0000 0.0000 -22.4729 -20.1356 -3.5765 4.9076 13.2790 40.4219 4.2500 11.8588 -44.1112 0.2486 3.2084 8.8595 0.0000 0.0000 0.0000 25.7481 22.3558 -3.6514 -4.3968 -12.6705 38.1471 -3.7732 -14.1691 -43.4216 -1.2309 7.0360 -19.8222 -0.4210 1.7204 2.3062 -1.6753 2.2474 3.2473 -1.4931 1.1063 2.0906 7.6856 0.9995 -5.0909 -2.4155 0.8074 10.4276 -1.9534 0.5345 3.9979 0.0000 -0.0000 0.0000 -84.8302 -0.6608 17.2655 14.6532 -23.6607 -3.0854 -0.0000 -0.0000 3.6041 17.7147 11.1076 3.5214 -7.1250 0.0000 -0.0000 -8.3738 41.4792 0.7330 0.0000 -0.0000 0.0000 87.1910 -4.5458 35.7966 -17.3259 27.2853 -4.2356 0.0000 -0.0000 -14.0943 -14.7947 3.4010 -0.8976 7.1250 -0.0000 -0.0000 8.9711 -26.4408 4.0851
19.2011 14.8675 1.0123 -166.6070 -81.2522 164.1440 0.0000 0.0000 0.0000 -22.3843 -20.0325 -3.8359 4.9314 13.3061 40.5254 4.2365 11.5684 -43.8991 0.2559 3.2549 8.9893 0.0000 0.0000 0.0000 25.6048 21.5674 -3.8364 -4.3857 -12.6567 38.0968 -3.7439 -13.9526 -43.1640 -1.3532 7.3639 -20.7980 -0.2763 1.9392 2.3540 -1.9290 2.5404 3.2002 -1.8380 1.2582 2.0408 8.2583 1.3562 -5.1374 -2.4917 1.2348 10.5519 -2.0482 0.7647 4.0715 -0.0000 0.0000 0.0000 -84.2588 -0.6372 18.2113 14.9040 -24.0122 -3.1868 -0.0000 -0.0000 3.0691 17.8442 11.7563 3.7527 -7.1250 0.0000 -0.0000 -8.3856 42.1617 0.5918 -0.0000 0.0000 0.0000 87.7724 -4.7438 35.1736 -17.3575 27.3267 -4.2502 0.0000 -0.0000 -13.7097 -14.1892 3.0189 -0.7629 7.1250 -0.0000 -0.0000 9.4567 -26.8364 4.2228
19.2000 14.8637 1.0281 -167.7500 -81.5685 165.2870 0.0000 0.0000 0.0000 -22.7251 -20.1547 -3.8692 4.9387 13.3144 40.5571 4.2067 11.6373 -43.8100 0.2290 3.0802 8.5020 0.0000 0.0000 0.0000 25.2573 21.9744 -3.7872 -4.3920 -12.6645 38.1252 -3.9763 -13.2923 -43.7595 -1.0730 6.5847 -18.4908 -0.6042 1.9769 2.4091 -2.0784 2.5843 3.2561 -1.8094 1.2727 2.0614 8.3911 1.6844 -5.1336 -2.3602 1.6545 10.3131 -2.0063 0.9806 4.0221 0.0000 -0.0000 0.0000 -83.9981 -0.6441 18.4456 15.1145 -24.3054 -3.2729 -0.0000 -0.0000 2.7171 17.7418 11.0951 3.5232 -7.1250 0.0000 -0.0000 -8.3477 41.4689 0.7328 0.0000 -0.0000 0.0000 87.8998 -4.6659 35.7755 -17.2487 27.1845 -4.2003 0.0000 -0.0000 -14.6157 -14.0494 2.9374 -0.7347 7.1250 -0.0000 -0.0000 9.5688 -26.9204 4.2550
19.2081 14.8649 1.0418 -165.8750 -81.7609 163.4940 0.0000 0.0000 0.0000 -22.4418 -20.2627 -4.1695 4.9811 13.3625 40.7409 4.1267 11.7176 -43.5134 0.2106 2.9546 8.1523 0.0000 0.0000 0.0000 25.4753 22.1014 -3.7334 -4.3615 -12.6265 37.9860 -3.9741 -13.6126 -43.9375 -1.0946 6.6487 -18.6786 -0.5700 2.0787 2.6091 -2.0877 2.7156 3.2053 -1.8474 1.3390 1.9030 8.5713 1.7535 -4.8463 -2.4185 1.7698 9.8864 -2.0484 1.0363 3.8531 0.0000 -0.0000 0.0000 -83.7762 -0.6329 18.6669 15.2067 -24.4333 -3.3110 -0.0000 -0.0000 2.7718 17.3393 11.8115 3.6567 -7.1250 0.0000 -0.0000 -8.8434 42.1686 0.6231 0.0000 -0.0000 0.0000 88.0130 -4.8483 35.9206 -17.4080 27.3925 -4.2734 0.0000 -0.0000 -14.5723 -14.1499 3.1102 -0.7837 7.1250 -0.0000 -0.0000 9.4795 -26.7440 4.2542
19.2146 14.8684 1.0566 -163.5440 -82.0708 161.2630 0.0000 0.0000 0.0000 -22.0203 -20.1028 -4.7001 5.0269 13.4140 40.9387 3.9326 11.9860 -42.8269 0.1412 2.4216 6.6722 0.0000 0.0000 0.0000 25.6366 22.1466 -3.7239 -4.3237 -12.5791 37.8126 -4.0747 -13.4759 -44.2795 -0.9805 6.3031 -17.6663 -0.5625 2.0873 2.7304 -2.0444 2.7238 3.2817 -1.8103 1.3421 1.9121 8.5612 1.8582 -5.1923 -2.4851 1.8932 9.8090 -2.0583 1.0931 3.8939 0.0000 -0.0000 0.0000 -83.6128 -0.5073 19.0661 15.5267 -24.8747 -3.4444 -0.0000 -0.0000 2.5132 17.3611 11.6264 3.6052 -7.1250 0.0000 -0.0000 -8.7867 41.9804 0.6602 0.0000 -0.0000 0.0000 88.0096 -4.5276 36.0057 -17.4679 27.4705 -4.3010 0.0000 -0.0000 -14.0139 -14.3455 3.3056 -0.8448 7.1250 -0.0000 -0.0000 9.3172 -26.5433 4.2239
19.2083 14.8680 1.0830 -164.6210 -82.3277 162.2540 0.0000 0.0000 0.0000 -22.3999 -20.1148 -4.6739 5.0375 13.4260 40.9846 3.8548 12.2585 -42.6423 0.1123 2.1610 5.9509 0.0000 0.0000 0.0000 25.3009 22.0177 -3.6142 -4.3221 -12.5771 37.8053 -4.1598 -13.2441 -44.5003 -0.9321 6.1499 -17.2200 -0.7425 2.1957 3.0430 -2.2856 2.8547 3.2490 -1.9722 1.4040 1.7113 8.4932 1.8065 -5.2013 -2.3617 1.8185 9.7100 -2.0130 1.0583 3.8596 -0.0000 0.0000 0.0000 -83.1310 -0.2080 19.6158 15.7098 -25.1256 -3.5218 -0.0000 -0.0000 1.8937 17.3417 11.0830 3.4352 -7.1250 0.0000 -0.0000 -8.6967 41.4191 0.7747 -0.0000 0.0000 0.0000 88.2973 -4.6562 36.3403 -17.6083 27.6527 -4.3659 0.0000 -0.0000 -14.6333 -14.4529 2.8669 -0.7386 7.1250 -0.0000 -0.0000 9.2682 -26.9892 4.1028
19.2049 14.8734 1.1110 -166.0050 -82.5869 163.6020 0.0000 0.0000 0.0000 -22.7465 -20.1294 -4.7659 5.0420 13.4309 41.0037 3.7596 12.5292 -42.3826 0.1270 2.2968 6.3267 0.0000 0.0000 0.0000 24.9005 21.9216 -3.6516 -4.3163 -12.5699 37.7789 -4.0354 -13.8819 -44.3526 -1.0494 6.5143 -18.2841 -1.1092 2.3214 3.3567 -2.4653 3.0014 3.2314 -1.9683 1.4690 1.5134 8.5003 1.7676 -5.3402 -2.2341 1.7443 9.5420 -1.9775 1.0255 3.8268 0.0000 -0.0000 0.0000 -82.7444 0.0715 20.0639 15.8658 -25.3384 -3.5883 -0.0000 -0.0000 1.1648 17.2672 11.6106 3.5797 -7.1250 0.0000 -0.0000 -8.8664 41.9550 0.6719 0.0000 -0.0000 0.0000 88.4645 -4.6735 36.4339 -17.8319 27.9414 -4.4702 0.0000 -0.0000 -14.8572 -14.5979 3.0642 -0.7976 7.1250 -0.0000 -0.0000 9.1437 -26.7867 4.0904
19.1977 14.8906 1.1496 -164.4690 -83.0000 162.6620 0.0000 0.0000 0.0000 -22.5580 -20.5082 -5.5659 5.0745 13.4672 41.1434 3.6558 12.4873 -41.8999 0.1390 2.4032 6.6213 0.0000 0.0000 0.0000 24.5196 21.8962 -4.4182 -4.2904 -12.5372 37.6598 -3.7014 -15.3915 -43.8846 -1.3576 7.3753 -20.8322 -1.0832 2.3145 2.9997 -2.5277 3.0055 3.2043 -2.0321 1.4733 1.6900 8.4468 1.8437 -5.8741 -2.2363 1.8110 9.4471 -1.9622 1.0553 3.8892 -0.0000 -0.0000 0.0000 -82.5776 0.1565 20.4045 16.0659 -25.6100 -3.6744 -0.0000 -0.0000 0.9940 17.2967 11.9639 3.6934 -7.1250 0.0000 -0.0000 -8.9124 42.3212 0.5942 -0.0000 -0.0000 0.0000 88.4846 -4.3140 36.7471 -18.0290 28.1942 -4.5629 0.0000 -0.0000 -15.1834 -14.6395 2.8105 -0.7338 7.1250 -0.0000 -0.0000 9.1307 -27.0452 4.0283
19.2000 14.8806 1.1902 -161.9620 -83.4134 160.2280 0.0000 0.0000 0.0000 -22.3357 -20.3237 -6.0786 5.1513 13.5522 41.4724 3.6490 11.8863 -41.5191 0.1309 2.3321 6.4243 0.0000 0.0000 0.0000 24.5173 21.6411 -4.2550 -4.2476 -12.4828 37.4621 -4.1070 -13.8116 -44.6085 -1.0360 6.4739 -18.1657 -1.0777 2.3534 3.2730 -2.5236 3.0479 3.3024 -2.0413 1.4930 1.6397 8.1380 1.6703 -6.0734 -1.8651 1.5623 8.6140 -2.0069 0.9404 4.0457 -0.0000 0.0000 0.0000 -82.4917 0.2205 20.6104 16.1842 -25.7697 -3.7257 -0.0000 -0.0000 1.0607 17.4433 10.9021 3.4009 -7.1250 0.0000 -0.0000 -8.5728 41.2421 0.8012 -0.0000 0.0000 0.0000 88.4060 -4.1396 37.3105 -18.3736 28.6329 -4.7269 0.0000 -0.0000 -15.7010 -14.5470 2.5051 -0.6498 7.1250 -0.0000 -0.0000 9.2241 -27.3574 4.0018
